<svg width="27" height="20" viewBox="0 0 27 20" fill="none" xmlns="http://www.w3.org/2000/svg">
<path d="M2 0.615387C0.89543 0.615387 0 1.51082 0 2.61539H2V0.615387ZM25 0.615387H2V2.61539H25V0.615387ZM27 2.61539C27 1.51082 26.1046 0.615387 25 0.615387V2.61539H27ZM25 4.61539C26.1046 4.61539 27 3.71996 27 2.61539H25V2.61539V4.61539ZM2 4.61539H25V2.61539H2V4.61539ZM0 2.61539C0 3.71996 0.895431 4.61539 2 4.61539V2.61539V2.61539H0ZM2 8C0.89543 8 0 8.89543 0 10H2V8ZM25 8H2V10H25V8ZM27 10C27 8.89543 26.1046 8 25 8V10H27ZM25 12C26.1046 12 27 11.1046 27 10H25V12ZM2 12H25V10H2V12ZM0 10C0 11.1046 0.895431 12 2 12V10H0ZM2 17.3846V15.3846C0.895431 15.3846 0 16.28 0 17.3846H2ZM2 17.3846V17.3846H0C0 18.4892 0.89543 19.3846 2 19.3846V17.3846ZM25 17.3846H2V19.3846H25V17.3846ZM25 17.3846V17.3846V19.3846C26.1046 19.3846 27 18.4892 27 17.3846H25ZM25 17.3846H27C27 16.28 26.1046 15.3846 25 15.3846V17.3846ZM2 17.3846H25V15.3846H2V17.3846Z" fill="black"/>
</svg>
